:FULLY-SPECIFIED
:FORCE-ALL-JOINTS-BE-3DOF
:DEGREES
85
root 0.579806 17.4494 8.99354 0.163443 4.67416 3.19146
lfemur -14.1955 -3.05682 -27.3235
ltibia 41.9152 -0 0
lfoot -13.486 -0.627867 0.00128554
ltoes -15.6741 0 0
rfemur -13.348 -11.2271 15.951
rtibia 103.364 -0 0
rfoot 22.4661 -6.56012 -0.00204642
rtoes 24.9001 -0 0
lowerback 17.9494 -0.844744 -5.08617
upperback 2.9711 -2.25887 -2.56549
thorax -6.75921 -1.00237 0.660451
lowerneck -6.72602 -0.876309 -2.03902
upperneck -8.88557 -0.824971 4.3202
head -1.61486 -0.404948 1.70896
lclavicle -3.22031e-14 1.82882e-14 0
lhumerus -25.4748 -15.5381 85.7292
lradius 106.844 -0 0
lwrist 29.2119 0 0
lhand -36.1633 7.60608 -0.000904431
lfingers 7.12502 -0 0
lthumb -9.26742 37.3821 -0.00082625
rclavicle -3.22031e-14 1.82882e-14 0
rhumerus -47.6404 6.48816 -85.1011
rradius 79.8417 -0 0
rwrist 0.975962 0 0
rhand -44.6217 38.1492 2.43033e-05
rfingers 7.12502 -0 0
rthumb -17.4196 8.90969 2.28677e-05
86
root 0.584522 17.4507 9.53457 0.14622 4.3946 3.10173
lfemur -13.8396 -2.63745 -27.0522
ltibia 43.3156 -0 0
lfoot -12.4637 -0.626079 0.00188068
ltoes -15.4643 0 0
rfemur -13.5473 -10.8306 16.2726
rtibia 101.669 -0 0
rfoot 21.6306 -6.5566 -0.00299285
rtoes 24.4856 -0 0
lowerback 17.941 -0.865391 -4.90951
upperback 2.93798 -2.24527 -2.46404
thorax -6.79201 -0.998542 0.665858
lowerneck -6.72419 -0.779127 -1.98524
upperneck -8.86098 -0.711424 4.10169
head -1.6074 -0.346929 1.63218
lclavicle -3.22031e-14 1.82882e-14 0
lhumerus -25.9787 -15.6781 85.9289
lradius 106.811 -0 0
lwrist 29.1754 0 0
lhand -36.2024 7.64008 -0.00132186
lfingers 7.12502 -0 0
lthumb -9.30511 37.4143 -0.0012076
rclavicle -3.22031e-14 1.82882e-14 0
rhumerus -47.4087 6.6288 -85.1118
rradius 80.1469 -0 0
rwrist 0.866323 0 0
rhand -44.6185 38.1606 3.55202e-05
rfingers 7.12502 -0 0
rthumb -17.4166 8.92086 3.3422e-05
87
root 0.589238 17.4521 10.0756 0.129441 4.11501 3.01212
lfemur -13.4818 -2.21978 -26.7784
ltibia 44.7159 -0 0
lfoot -11.4414 -0.624279 0.0024438
ltoes -15.2545 0 0
rfemur -13.744 -10.433 16.5924
rtibia 99.9744 -0 0
rfoot 20.795 -6.55306 -0.0038878
rtoes 24.0712 -0 0
lowerback 17.9326 -0.886012 -4.73285
upperback 2.90488 -2.23161 -2.3626
thorax -6.8248 -0.994713 0.671262
lowerneck -6.72227 -0.681946 -1.93146
upperneck -8.83683 -0.597784 3.88323
head -1.60002 -0.288901 1.5554
lclavicle -3.22031e-14 1.82882e-14 0
lhumerus -26.4834 -15.8163 86.13
lradius 106.779 -0 0
lwrist 29.1389 0 0
lhand -36.2415 7.67409 -0.00171611
lfingers 7.12502 -0 0
lthumb -9.3428 37.4465 -0.00156776
rclavicle -3.22031e-14 1.82882e-14 0
rhumerus -47.1769 6.76948 -85.1219
rradius 80.452 -0 0
rwrist 0.756684 0 0
rhand -44.6154 38.172 4.61139e-05
rfingers 7.12502 -0 0
rthumb -17.4136 8.93203 4.33899e-05
88
root 0.593954 17.4534 10.6166 0.113106 3.83539 2.92262
lfemur -13.122 -1.80383 -26.5021
ltibia 46.1163 -0 0
lfoot -10.4191 -0.62247 0.00297474
ltoes -15.0447 0 0
rfemur -13.9382 -10.0344 16.9104
rtibia 98.2795 -0 0
rfoot 19.9595 -6.54951 -0.00473111
rtoes 23.6567 -0 0
lowerback 17.9241 -0.906608 -4.55618
upperback 2.8718 -2.21789 -2.26117
thorax -6.85759 -0.990882 0.676665
lowerneck -6.72026 -0.584767 -1.87768
upperneck -8.81311 -0.484053 3.66482
head -1.59271 -0.230863 1.47863
lclavicle -3.22031e-14 1.82882e-14 0
lhumerus -26.9889 -15.9528 86.3325
lradius 106.747 -0 0
lwrist 29.1024 0 0
lhand -36.2805 7.7081 -0.00208716
lfingers 7.12502 -0 0
lthumb -9.38049 37.4787 -0.00190674
rclavicle -3.22031e-14 1.82882e-14 0
rhumerus -46.9451 6.9102 -85.1315
rradius 80.7572 -0 0
rwrist 0.647045 0 0
rhand -44.6123 38.1835 5.60845e-05
rfingers 7.12502 -0 0
rthumb -17.4106 8.94321 5.27716e-05
89
root 0.59867 17.4548 11.1576 0.0972145 3.55575 2.83322
lfemur -12.7604 -1.38962 -26.2232
ltibia 47.5167 -0 0
lfoot -9.39679 -0.620652 0.00347331
ltoes -14.8349 0 0
rfemur -14.13 -9.63467 17.2267
rtibia 96.5847 -0 0
rfoot 19.1239 -6.54595 -0.00552258
rtoes 23.2422 -0 0
lowerback 17.9155 -0.927177 -4.37951
upperback 2.83875 -2.20411 -2.15975
thorax -6.89038 -0.987047 0.682065
lowerneck -6.71815 -0.487589 -1.8239
upperneck -8.78983 -0.370232 3.44646
head -1.58548 -0.172815 1.40187
lclavicle -3.22031e-14 1.82882e-14 0
lhumerus -27.4953 -16.0875 86.5364
lradius 106.715 -0 0
lwrist 29.0658 0 0
lhand -36.3196 7.74211 -0.00243503
lfingers 7.12502 -0 0
lthumb -9.41818 37.5109 -0.00222454
rclavicle -3.22031e-14 1.82882e-14 0
rhumerus -46.7132 7.05096 -85.1405
rradius 81.0624 -0 0
rwrist 0.537406 0 0
rhand -44.6092 38.1949 6.54319e-05
rfingers 7.12502 -0 0
rthumb -17.4076 8.95438 6.15668e-05
90
root 0.603386 17.4561 11.6987 0.0817643 3.27609 2.74393
lfemur -12.3968 -0.977191 -25.9417
ltibia 48.917 -0 0
lfoot -8.37448 -0.618825 0.00393937
ltoes -14.6251 0 0
rfemur -14.3192 -9.23395 17.5412
rtibia 94.8898 -0 0
rfoot 18.2884 -6.54238 -0.00626204
rtoes 22.8278 -0 0
lowerback 17.9068 -0.947719 -4.20283
upperback 2.80573 -2.19027 -2.05833
thorax -6.92317 -0.983209 0.687463
lowerneck -6.71596 -0.390414 -1.77011
upperneck -8.76698 -0.256323 3.22815
head -1.57833 -0.114757 1.32511
lclavicle -3.22031e-14 1.82882e-14 0
lhumerus -28.0026 -16.2205 86.7417
lradius 106.683 -0 0
lwrist 29.0293 0 0
lhand -36.3587 7.77612 -0.0027597
lfingers 7.12502 -0 0
lthumb -9.45588 37.5431 -0.00252115
rclavicle -3.22031e-14 1.82882e-14 0
rhumerus -46.4813 7.19175 -85.1489
rradius 81.3675 -0 0
rwrist 0.427767 0 0
rhand -44.606 38.2064 7.41562e-05
rfingers 7.12502 -0 0
rthumb -17.4045 8.96555 6.97757e-05
91
root 0.608102 17.4575 12.2397 0.0667546 2.9964 2.65474
lfemur -12.0312 -0.566558 -25.6577
ltibia 50.3174 -0 0
lfoot -7.35218 -0.616991 0.00437276
ltoes -14.4153 0 0
rfemur -14.5061 -8.8322 17.854
rtibia 93.1949 -0 0
rfoot 17.4528 -6.5388 -0.00694935
rtoes 22.4133 -0 0
lowerback 17.8981 -0.968234 -4.02615
upperback 2.77273 -2.17637 -1.95693
thorax -6.95596 -0.979367 0.692858
lowerneck -6.71368 -0.293241 -1.71632
upperneck -8.74456 -0.142328 3.00988
head -1.57126 -0.0566902 1.24836
lclavicle -3.22031e-14 1.82882e-14 0
lhumerus -28.5107 -16.3518 86.9483
lradius 106.651 -0 0
lwrist 28.9928 0 0
lhand -36.3977 7.81013 -0.00306119
lfingers 7.12502 -0 0
lthumb -9.49357 37.5753 -0.00279657
rclavicle -3.22031e-14 1.82882e-14 0
rhumerus -46.2493 7.33258 -85.1567
rradius 81.6727 -0 0
rwrist 0.318128 0 0
rhand -44.6029 38.2178 8.22573e-05
rfingers 7.12502 -0 0
rthumb -17.4015 8.97672 7.73983e-05
92
root 0.612818 17.4588 12.7807 0.0521846 2.71669 2.56565
lfemur -11.6636 -0.157751 -25.371
ltibia 51.7177 -0 0
lfoot -6.32988 -0.615148 0.00477334
ltoes -14.2055 0 0
rfemur -14.6905 -8.42946 18.1652
rtibia 91.5 -0 0
rfoot 16.6173 -6.53521 -0.00758435
rtoes 21.9989 -0 0
lowerback 17.8894 -0.988723 -3.84946
upperback 2.73975 -2.16242 -1.85554
thorax -6.98875 -0.975523 0.698252
lowerneck -6.7113 -0.19607 -1.66253
upperneck -8.72258 -0.0282485 2.79167
head -1.56427 0.00138618 1.17162
lclavicle -3.22031e-14 1.82882e-14 0
lhumerus -29.0196 -16.4813 87.1562
lradius 106.618 -0 0
lwrist 28.9562 0 0
lhand -36.4368 7.84414 -0.00333948
lfingers 7.12502 -0 0
lthumb -9.53126 37.6075 -0.00305081
rclavicle -3.22031e-14 1.82882e-14 0
rhumerus -46.0173 7.47344 -85.164
rradius 81.9778 -0 0
rwrist 0.208489 0 0
rhand -44.5998 38.2292 8.97352e-05
rfingers 7.12502 -0 0
rthumb -17.3985 8.98789 8.44345e-05
93
root 0.617534 17.4602 13.3217 0.038053 2.43696 2.47665
lfemur -11.2939 0.249203 -25.0818
ltibia 53.1181 -0 0
lfoot -5.30758 -0.613299 0.00514099
ltoes -13.9957 0 0
rfemur -14.8725 -8.02573 18.4748
rtibia 89.8051 -0 0
rfoot 15.7817 -6.53161 -0.00816691
rtoes 21.5844 -0 0
lowerback 17.8805 -1.00918 -3.67277
upperback 2.7068 -2.14841 -1.75415
thorax -7.02154 -0.971676 0.703643
lowerneck -6.70883 -0.0989013 -1.60873
upperneck -8.70103 0.085914 2.57349
head -1.55735 0.059472 1.09489
lclavicle -3.22031e-14 1.82882e-14 0
lhumerus -29.5293 -16.6091 87.3655
lradius 106.586 -0 0
lwrist 28.9197 0 0
lhand -36.4759 7.87815 -0.00359459
lfingers 7.12502 -0 0
lthumb -9.56895 37.6397 -0.00328386
rclavicle -3.22031e-14 1.82882e-14 0
rhumerus -45.7852 7.61432 -85.1707
rradius 82.283 -0 0
rwrist 0.0988497 0 0
rhand -44.5967 38.2407 9.659e-05
rfingers 7.12502 -0 0
rthumb -17.3955 8.99906 9.08844e-05
94
root 0.62225 17.4615 13.8627 0.0243591 2.1572 2.38773
lfemur -10.9222 0.654277 -24.7899
ltibia 54.5185 -0 0
lfoot -4.28527 -0.611444 0.00547559
ltoes -13.7859 0 0
rfemur -15.0521 -7.62104 18.7828
rtibia 88.1102 -0 0
rfoot 14.9462 -6.528 -0.0086969
rtoes 21.1699 -0 0
lowerback 17.8717 -1.02962 -3.49608
upperback 2.67388 -2.13434 -1.65277
thorax -7.05433 -0.967826 0.709032
lowerneck -6.70628 -0.00173493 -1.55493
upperneck -8.67992 0.200158 2.35536
head -1.55051 0.117567 1.01816
lclavicle -3.22031e-14 1.82882e-14 0
lhumerus -30.0399 -16.735 87.5761
lradius 106.554 -0 0
lwrist 28.8832 0 0
lhand -36.5149 7.91216 -0.0038265
lfingers 7.12502 -0 0
lthumb -9.60664 37.6719 -0.00349573
rclavicle -3.22031e-14 1.82882e-14 0
rhumerus -45.5531 7.75523 -85.1768
rradius 82.5881 -0 0
rwrist -0.0107893 0 0
rhand -44.5936 38.2521 0.000102822
rfingers 7.12502 -0 0
rthumb -17.3925 9.01023 9.67479e-05
95
root 0.626966 17.4629 14.4038 0.011102 1.87743 2.29889
lfemur -10.5484 1.05744 -24.4953
ltibia 55.9188 -0 0
lfoot -3.26297 -0.609583 0.00577704
ltoes -13.5761 0 0
rfemur -15.2294 -7.2154 19.0892
rtibia 86.4153 -0 0
rfoot 14.1106 -6.52438 -0.00917422
rtoes 20.7555 -0 0
lowerback 17.8627 -1.05003 -3.31938
upperback 2.64098 -2.12021 -1.5514
thorax -7.08712 -0.963972 0.714419
lowerneck -6.70363 0.0954289 -1.50112
upperneck -8.65924 0.314481 2.13727
head -1.54375 0.175671 0.941445
lclavicle -3.22031e-14 1.82882e-14 0
lhumerus -30.5513 -16.8592 87.788
lradius 106.522 -0 0
lwrist 28.8466 0 0
lhand -36.554 7.94617 -0.00403523
lfingers 7.12502 -0 0
lthumb -9.64433 37.7042 -0.00368641
rclavicle -3.22031e-14 1.82882e-14 0
rhumerus -45.3209 7.89617 -85.1824
rradius 82.8933 -0 0
rwrist -0.120428 0 0
rhand -44.5904 38.2635 0.00010843
rfingers 7.12502 -0 0
rthumb -17.3895 9.0214 0.000102025
96
root 0.631682 17.4642 14.9448 -0.00171922 1.59763 2.21014
lfemur -10.1725 1.45867 -24.1981
ltibia 57.3192 -0 0
lfoot -2.24067 -0.607717 0.00604524
ltoes -13.3663 0 0
rfemur -15.4043 -6.80883 19.394
rtibia 84.7204 -0 0
rfoot 13.2751 -6.52076 -0.00959876
rtoes 20.341 -0 0
lowerback 17.8537 -1.0704 -3.14268
upperback 2.6081 -2.10602 -1.45005
thorax -7.1199 -0.960115 0.719804
lowerneck -6.70088 0.19259 -1.44731
upperneck -8.639 0.428882 1.91921
head -1.53707 0.233784 0.864732
lclavicle -3.22031e-14 1.82882e-14 0
lhumerus -31.0635 -16.9815 88.0012
lradius 106.49 -0 0
lwrist 28.8101 0 0
lhand -36.5931 7.98018 -0.00422076
lfingers 7.12502 -0 0
lthumb -9.68203 37.7364 -0.0038559
rclavicle -3.22031e-14 1.82882e-14 0
rhumerus -45.0886 8.03712 -85.1874
rradius 83.1985 -0 0
rwrist -0.230067 0 0
rhand -44.5873 38.275 0.000113415
rfingers 7.12502 -0 0
rthumb -17.3865 9.03258 0.000106716
97
root 0.636398 17.4656 15.4858 -0.0141053 1.31782 2.12145
lfemur -9.79437 1.85794 -23.8982
ltibia 58.7196 -0 0
lfoot -1.21837 -0.605846 0.00628009
ltoes -13.1566 0 0
rfemur -15.5769 -6.40134 19.6974
rtibia 83.0255 -0 0
rfoot 12.4395 -6.51713 -0.00997043
rtoes 19.9265 -0 0
lowerback 17.8446 -1.09076 -2.96597
upperback 2.57525 -2.09178 -1.3487
thorax -7.15269 -0.956256 0.725186
lowerneck -6.69805 0.289749 -1.39349
upperneck -8.6192 0.543359 1.70119
head -1.53046 0.291906 0.788026
lclavicle -3.22031e-14 1.82882e-14 0
lhumerus -31.5765 -17.102 88.2157
lradius 106.458 -0 0
lwrist 28.7736 0 0
lhand -36.6322 8.01419 -0.0043831
lfingers 7.12502 -0 0
lthumb -9.71972 37.7686 -0.00400421
rclavicle -3.22031e-14 1.82882e-14 0
rhumerus -44.8563 8.1781 -85.1918
rradius 83.5036 -0 0
rwrist -0.339706 0 0
rhand -44.5842 38.2864 0.000117777
rfingers 7.12502 -0 0
rthumb -17.3835 9.04375 0.00011082
